<svg width="200" height="200" version="1.1" xmlns="http://www.w3.org/2000/svg" desc="Created with imagetracer.js version 1.2.6" ><path fill="rgb(253,253,253)" stroke="rgb(253,253,253)" stroke-width="1" opacity="1" d="M 29.5 16 L 31.5 17 L 32.5 16 L 167.5 16 L 169.5 17 L 171 16.5 Q 168.8 17.8 171.5 19 L 173.5 18 L 172.5 20 L 169 19.5 L 169.5 18 L 167.5 17 L 32.5 17 L 30 18.5 L 30.5 20 Q 26.8 20.8 26 18.5 L 27.5 19 L 30 17.5 L 29.5 16 Z " /><path fill="rgb(253,253,253)" stroke="rgb(253,253,253)" stroke-width="1" opacity="1" d="M 32.5 19 L 168 19.5 L 32.5 20 L 32.5 19 Z " /><path fill="rgb(253,253,253)" stroke="rgb(253,253,253)" stroke-width="1" opacity="1" d="M 16.5 21 L 17 23.5 L 16 23.5 L 16.5 21 Z " /><path fill="rgb(253,253,253)" stroke="rgb(253,253,253)" stroke-width="1" opacity="1" d="M 183.5 21 L 184 23.5 L 183 23.5 L 183.5 21 Z " /><path fill="rgb(253,253,253)" stroke="rgb(253,253,253)" stroke-width="1" opacity="1" d="M 19.5 26 L 18.5 28 L 19.5 26 Z " /><path fill="rgb(253,253,253)" stroke="rgb(253,253,253)" stroke-width="1" opacity="1" d="M 180.5 26 L 181.5 28 L 180.5 26 Z " /><path fill="rgb(253,253,253)" stroke="rgb(253,253,253)" stroke-width="1" opacity="1" d="M 32.5 30 L 168 30.5 L 32.5 31 L 32.5 30 Z " /><path fill="rgb(253,253,253)" stroke="rgb(253,253,253)" stroke-width="1" opacity="1" d="M 121 48 L 127.5 48 L 128 49.5 Q 127 52 122.5 51 L 121 48 Z " /><path fill="rgb(253,253,253)" stroke="rgb(253,253,253)" stroke-width="1" opacity="1" d="M 99.5 49 L 99 50.5 L 98.5 52 L 98 50.5 L 99.5 49 Z " /><path fill="rgb(253,253,253)" stroke="rgb(253,253,253)" stroke-width="1" opacity="1" d="M 89.5 51 Q 94 53 90.5 55 L 90.5 53 Q 87.7 53.7 89.5 51 Z " /><path fill="rgb(253,253,253)" stroke="rgb(253,253,253)" stroke-width="1" opacity="1" d="M 100.5 54 L 102.5 57 L 100 56 L 100.5 54 Z " /><path fill="rgb(253,253,253)" stroke="rgb(253,253,253)" stroke-width="1" opacity="1" d="M 100.5 57 L 99.5 59 L 98 58.5 L 100.5 57 Z " /><path fill="rgb(253,253,253)" stroke="rgb(253,253,253)" stroke-width="1" opacity="1" d="M 119.5 60 L 123 62.5 L 121 63.5 L 121.5 62 L 119.5 60 Z " /><path fill="rgb(253,253,253)" stroke="rgb(253,253,253)" stroke-width="1" opacity="1" d="M 80.5 64 L 81 66 Q 83.7 64.9 83 67.5 L 80 65.5 L 80.5 64 Z " /><path fill="rgb(253,253,253)" stroke="rgb(253,253,253)" stroke-width="1" opacity="1" d="M 124.5 65 L 128 67.5 L 126.5 70 L 127 68.5 L 125.5 66 L 124.5 65 Z " /><path fill="rgb(253,253,253)" stroke="rgb(253,253,253)" stroke-width="1" opacity="1" d="M 124.5 73 L 127 74.5 L 125.5 74 L 123.5 75 L 124.5 73 Z " /><path fill="rgb(253,253,253)" stroke="rgb(253,253,253)" stroke-width="1" opacity="1" d="M 84.5 74 L 84 75.5 L 85 78.5 L 83 79.5 L 84 77.5 L 83 75.5 L 84.5 74 Z " /><path fill="rgb(253,253,253)" stroke="rgb(253,253,253)" stroke-width="1" opacity="1" d="M 125.5 76 L 128 76.5 Q 125.9 79.8 125.5 76 Z " /><path fill="rgb(253,253,253)" stroke="rgb(253,253,253)" stroke-width="1" opacity="1" d="M 123.5 79 L 124.5 81 L 123.5 79 Z " /><path fill="rgb(253,253,253)" stroke="rgb(253,253,253)" stroke-width="1" opacity="1" d="M 127.5 80 L 128 81.5 L 126 82.5 L 127.5 80 Z " /><path fill="rgb(253,253,253)" stroke="rgb(253,253,253)" stroke-width="1" opacity="1" d="M 81.5 83 L 82.5 85 L 84 84.5 L 82.5 88 L 81.5 83 Z " /><path fill="rgb(253,253,253)" stroke="rgb(253,253,253)" stroke-width="1" opacity="1" d="M 98.5 88 L 99 90 L 97 89.5 L 98.5 88 Z " /><path fill="rgb(253,253,253)" stroke="rgb(253,253,253)" stroke-width="1" opacity="1" d="M 83.5 89 L 86 89.5 Q 83.9 92.8 83.5 89 Z " /><path fill="rgb(253,253,253)" stroke="rgb(253,253,253)" stroke-width="1" opacity="1" d="M 101.5 89 L 103.5 90 L 105 89.5 L 102.5 91 L 101.5 89 Z " /><path fill="rgb(253,253,253)" stroke="rgb(253,253,253)" stroke-width="1" opacity="1" d="M 112.5 89 L 111.5 91 L 106 90.5 L 112.5 89 Z " /><path fill="rgb(253,253,253)" stroke="rgb(253,253,253)" stroke-width="1" opacity="1" d="M 79.5 90 L 78.5 92 L 77 91.5 L 79.5 90 Z " /><path fill="rgb(253,253,253)" stroke="rgb(253,253,253)" stroke-width="1" opacity="1" d="M 110.5 92 L 115 94.5 L 111.5 96 L 108 94.5 L 112 93.5 L 110.5 92 Z " /><path fill="rgb(253,253,253)" stroke="rgb(253,253,253)" stroke-width="1" opacity="1" d="M 72.5 93 L 73.5 95 L 72.5 93 Z " /><path fill="rgb(253,253,253)" stroke="rgb(253,253,253)" stroke-width="1" opacity="1" d="M 76.5 93 L 78 93.5 L 76 94 L 75.5 96 L 75 94.5 L 76.5 93 Z " /><path fill="rgb(253,253,253)" stroke="rgb(253,253,253)" stroke-width="1" opacity="1" d="M 82.5 93 Q 85.8 91.9 85 94.5 L 83.5 94 L 82.5 93 Z " /><path fill="rgb(253,253,253)" stroke="rgb(253,253,253)" stroke-width="1" opacity="1" d="M 98 93 L 103.5 94 L 106.5 93 L 106 94.5 Q 106.8 96.8 104.5 96 L 102 95 L 101.5 97 L 101 95 Q 96.9 96.3 98 93 Z " /><path fill="rgb(253,253,253)" stroke="rgb(253,253,253)" stroke-width="1" opacity="1" d="M 100.5 98 L 101 99.5 Q 99.5 102.5 98 99.5 L 100 99.5 L 100.5 98 Z " /><path fill="rgb(253,253,253)" stroke="rgb(253,253,253)" stroke-width="1" opacity="1" d="M 79.5 100 L 81 100.5 L 78.5 102 L 79.5 100 Z " /><path fill="rgb(253,253,253)" stroke="rgb(253,253,253)" stroke-width="1" opacity="1" d="M 120 102 L 128 102 L 128 104.5 L 126.5 104 Q 118.9 105.5 120 102 Z " /><path fill="rgb(253,253,253)" stroke="rgb(253,253,253)" stroke-width="1" opacity="1" d="M 82.5 103 L 81.5 105 L 80 104.5 L 82.5 103 Z " /><path fill="rgb(253,253,253)" stroke="rgb(253,253,253)" stroke-width="1" opacity="1" d="M 104.5 104 L 107 104.5 L 109 107.5 L 105 106.5 L 104.5 104 Z " /><path fill="rgb(253,253,253)" stroke="rgb(253,253,253)" stroke-width="1" opacity="1" d="M 113 104 L 115 104.5 L 113 105.5 L 113 104 Z " /><path fill="rgb(253,253,253)" stroke="rgb(253,253,253)" stroke-width="1" opacity="1" d="M 78.5 105 L 77.5 107 L 78.5 105 Z " /><path fill="rgb(253,253,253)" stroke="rgb(253,253,253)" stroke-width="1" opacity="1" d="M 73.5 106 L 72.5 108 L 71 107.5 L 73.5 106 Z " /><path fill="rgb(253,253,253)" stroke="rgb(253,253,253)" stroke-width="1" opacity="1" d="M 67.5 109 L 66.5 111 L 67.5 109 Z " /><path fill="rgb(253,253,253)" stroke="rgb(253,253,253)" stroke-width="1" opacity="1" d="M 75.5 109 L 74.5 111 L 73 110.5 L 75.5 109 Z " /><path fill="rgb(253,253,253)" stroke="rgb(253,253,253)" stroke-width="1" opacity="1" d="M 69.5 110 L 70.5 112 L 68 111.5 L 69.5 110 Z " /><path fill="rgb(253,253,253)" stroke="rgb(253,253,253)" stroke-width="1" opacity="1" d="M 111.5 110 L 112 112 L 110 111.5 L 111.5 110 Z " /><path fill="rgb(253,253,253)" stroke="rgb(253,253,253)" stroke-width="1" opacity="1" d="M 124.5 110 L 126.5 110 L 128 110.5 L 126 111.5 L 128 112 L 127.5 114 L 124.5 110 Z " /><path fill="rgb(253,253,253)" stroke="rgb(253,253,253)" stroke-width="1" opacity="1" d="M 48.5 112 L 49.5 114 L 48.5 112 Z " /><path fill="rgb(253,253,253)" stroke="rgb(253,253,253)" stroke-width="1" opacity="1" d="M 54.5 112 Q 56.8 111.3 56 113.5 L 54.5 112 Z " /><path fill="rgb(253,253,253)" stroke="rgb(253,253,253)" stroke-width="1" opacity="1" d="M 122.5 112 L 123 114 L 121 113.5 L 122.5 112 Z " /><path fill="rgb(253,253,253)" stroke="rgb(253,253,253)" stroke-width="1" opacity="1" d="M 147.5 114 L 146.5 116 L 147.5 114 Z " /><path fill="rgb(253,253,253)" stroke="rgb(253,253,253)" stroke-width="1" opacity="1" d="M 120.5 118 L 121.5 120 Q 118.7 120.7 120.5 118 Z " /><path fill="rgb(253,253,253)" stroke="rgb(253,253,253)" stroke-width="1" opacity="1" d="M 125 118 L 127 118.5 L 125 119.5 L 125 118 Z " /><path fill="rgb(253,253,253)" stroke="rgb(253,253,253)" stroke-width="1" opacity="1" d="M 156.5 121 Q 158.8 120.3 158 122.5 L 156.5 121 Z " /><path fill="rgb(253,253,253)" stroke="rgb(253,253,253)" stroke-width="1" opacity="1" d="M 159.5 123 L 159 124.5 L 158.5 126 L 158 124.5 L 159.5 123 Z " /><path fill="rgb(253,253,253)" stroke="rgb(253,253,253)" stroke-width="1" opacity="1" d="M 40.5 125 L 43 126.5 L 42.5 128 L 42 126 L 40.5 125 Z " /><path fill="rgb(253,253,253)" stroke="rgb(253,253,253)" stroke-width="1" opacity="1" d="M 166.5 128 L 168 131.5 L 167 131.5 L 166.5 128 Z " /><path fill="rgb(253,253,253)" stroke="rgb(253,253,253)" stroke-width="1" opacity="1" d="M 33.5 137 L 34 139.5 L 33 139.5 L 33.5 137 Z " /><path fill="rgb(253,253,253)" stroke="rgb(253,253,253)" stroke-width="1" opacity="1" d="M 170.5 137 L 171.5 139 L 170.5 137 Z " /><path fill="rgb(253,253,253)" stroke="rgb(253,253,253)" stroke-width="1" opacity="1" d="M 25.5 138 L 24.5 140 L 25.5 138 Z " /><path fill="rgb(253,253,253)" stroke="rgb(253,253,253)" stroke-width="1" opacity="1" d="M 27.5 142 L 28 144.5 L 27 144.5 L 27.5 142 Z " /><path fill="rgb(253,253,253)" stroke="rgb(253,253,253)" stroke-width="1" opacity="1" d="M 17 144 L 19 144.5 L 19 152 L 17 151.5 L 17 144 Z " /><path fill="rgb(253,253,253)" stroke="rgb(253,253,253)" stroke-width="1" opacity="1" d="M 180.5 144 L 183 144.5 L 182 145.5 L 183.5 148 L 180.5 144 Z " /><path fill="rgb(253,253,253)" stroke="rgb(253,253,253)" stroke-width="1" opacity="1" d="M 180 148 L 182 148.5 L 180 149.5 L 180 148 Z " /><path fill="rgb(253,253,253)" stroke="rgb(253,253,253)" stroke-width="1" opacity="1" d="M 168.5 150 L 169.5 152 L 168.5 150 Z " /><path fill="rgb(253,253,253)" stroke="rgb(253,253,253)" stroke-width="1" opacity="1" d="M 183.5 150 L 182.5 152 L 183.5 150 Z " /><path fill="rgb(253,253,253)" stroke="rgb(253,253,253)" stroke-width="1" opacity="1" d="M 16 153 L 18 153.5 L 16.5 156 L 16 153 Z " /><path fill="rgb(253,253,253)" stroke="rgb(253,253,253)" stroke-width="1" opacity="1" d="M 180.5 155 L 181.5 157 L 180.5 155 Z " /><path fill="rgb(253,253,253)" stroke="rgb(253,253,253)" stroke-width="1" opacity="1" d="M 183.5 157 L 184 159 L 181.5 160 L 180.5 158 Q 182 160.5 183.5 157 Z " /><path fill="rgb(253,253,253)" stroke="rgb(253,253,253)" stroke-width="1" opacity="1" d="M 16.5 159 L 19 160 L 19 167.5 L 17.5 168 L 16 168.5 Q 18.8 166.8 17 160.5 L 16.5 159 Z " /><path fill="rgb(253,253,253)" stroke="rgb(253,253,253)" stroke-width="1" opacity="1" d="M 181.5 172 L 180.5 174 L 181.5 172 Z " /><path fill="rgb(253,253,253)" stroke="rgb(253,253,253)" stroke-width="1" opacity="1" d="M 20.5 176 L 21.5 178 L 20.5 176 Z " /><path fill="rgb(253,253,253)" stroke="rgb(253,253,253)" stroke-width="1" opacity="1" d="M 183.5 176 L 184 178.5 L 183 178.5 L 183.5 176 Z " /><path fill="rgb(253,253,253)" stroke="rgb(253,253,253)" stroke-width="1" opacity="1" d="M 19 180 L 23 181.5 L 19 182 L 19 180 Z " /><path fill="rgb(253,253,253)" stroke="rgb(253,253,253)" stroke-width="1" opacity="1" d="M 27.5 180 L 31 180.5 L 30.5 182 L 32.5 183 L 167.5 183 L 170 181.5 L 169.5 180 Q 173.3 179.3 174 181.5 L 172.5 181 L 170 182.5 L 170.5 184 L 168.5 183 L 167.5 184 L 32.5 184 L 30.5 183 L 29 183.5 Q 31.3 182.2 28.5 181 L 26.5 182 L 27.5 180 Z " /><path fill="rgb(253,253,253)" stroke="rgb(253,253,253)" stroke-width="1" opacity="1" d="M 32.5 180 L 168 180.5 L 32.5 181 L 32.5 180 Z " /><path fill="rgb(254,254,254)" stroke="rgb(254,254,254)" stroke-width="1" opacity="1" d="M 19.5 18 L 21.5 18 L 24 18.5 L 18 21.5 L 17.5 24 L 17 21.5 L 19.5 18 Z " /><path fill="rgb(254,254,254)" stroke="rgb(254,254,254)" stroke-width="1" opacity="1" d="M 176.5 18 L 179.5 19 Q 180.8 16.8 182 19.5 L 183 23.5 L 182 23.5 L 180.5 20 Q 175.7 20 176.5 18 Z " /><path fill="rgb(254,254,254)" stroke="rgb(254,254,254)" stroke-width="1" opacity="1" d="M 22.5 21 L 25 22.5 L 23.5 22 L 22.5 21 Z " /><path fill="rgb(254,254,254)" stroke="rgb(254,254,254)" stroke-width="1" opacity="1" d="M 176.5 21 L 178 21.5 L 175.5 23 L 176.5 21 Z " /><path fill="rgb(254,254,254)" stroke="rgb(254,254,254)" stroke-width="1" opacity="1" d="M 17.5 32 L 18 143.5 L 16.5 152 L 16 144.5 L 17 143.5 L 17.5 32 Z " /><path fill="rgb(254,254,254)" stroke="rgb(254,254,254)" stroke-width="1" opacity="1" d="M 19.5 32 L 20 151.5 L 19 151.5 L 19.5 32 Z " /><path fill="rgb(254,254,254)" stroke="rgb(254,254,254)" stroke-width="1" opacity="1" d="M 24 32 L 27 32.5 L 27 136 L 24 135.5 L 24 32 Z " /><path fill="rgb(254,254,254)" stroke="rgb(254,254,254)" stroke-width="1" opacity="1" d="M 173 32 L 176 32.5 L 176 136 L 172.5 137 L 173 135.5 L 173 32 Z " /><path fill="rgb(254,254,254)" stroke="rgb(254,254,254)" stroke-width="1" opacity="1" d="M 180.5 32 L 181 143.5 L 180 143.5 L 180.5 32 Z " /><path fill="rgb(254,254,254)" stroke="rgb(254,254,254)" stroke-width="1" opacity="1" d="M 182.5 32 L 183 143.5 L 182 143.5 L 182.5 32 Z " /><path fill="rgb(254,254,254)" stroke="rgb(254,254,254)" stroke-width="1" opacity="1" d="M 121.5 47 Q 127.5 45.5 129 48.5 L 128 53 Q 122.3 53.4 120 49.5 L 121.5 47 Z M 121 48 L 123 51 Q 127 52 128 50 L 128 48 L 121 48 Z " /><path fill="rgb(254,254,254)" stroke="rgb(254,254,254)" stroke-width="1" opacity="1" d="M 97.5 48 Q 100.5 49.5 97.5 51 L 97.5 48 Z " /><path fill="rgb(254,254,254)" stroke="rgb(254,254,254)" stroke-width="1" opacity="1" d="M 111.5 48 L 113 52 L 111 51.5 L 111 49.5 L 111.5 48 Z " /><path fill="rgb(254,254,254)" stroke="rgb(254,254,254)" stroke-width="1" opacity="1" d="M 93.5 49 L 95 49.5 L 92.5 51 L 93.5 49 Z " /><path fill="rgb(254,254,254)" stroke="rgb(254,254,254)" stroke-width="1" opacity="1" d="M 101.5 52 Q 103.8 51.3 103 53.5 L 104 53.5 Q 103.2 50.9 106.5 52 L 112 53.5 L 103 56 L 101.5 52 Z " /><path fill="rgb(254,254,254)" stroke="rgb(254,254,254)" stroke-width="1" opacity="1" d="M 113.5 53 L 119 53.5 L 113.5 54 L 113.5 53 Z " /><path fill="rgb(254,254,254)" stroke="rgb(254,254,254)" stroke-width="1" opacity="1" d="M 122.5 56 L 123.5 58 L 124.5 56 L 125 59 L 127 59.5 L 126.5 61 L 128 61.5 L 127 63.5 L 128 65.5 L 127 65.5 L 124.5 61 L 122.5 64 L 123 60.5 L 122.5 56 Z " /><path fill="rgb(254,254,254)" stroke="rgb(254,254,254)" stroke-width="1" opacity="1" d="M 87.5 65 L 88 67.5 L 87 67.5 L 87.5 65 Z " /><path fill="rgb(254,254,254)" stroke="rgb(254,254,254)" stroke-width="1" opacity="1" d="M 125.5 69 L 127.5 72 L 125.5 69 Z " /><path fill="rgb(254,254,254)" stroke="rgb(254,254,254)" stroke-width="1" opacity="1" d="M 86.5 72 L 85.5 74 L 86.5 72 Z " /><path fill="rgb(254,254,254)" stroke="rgb(254,254,254)" stroke-width="1" opacity="1" d="M 80 75 L 83 76.5 L 80 77 L 80 75 Z " /><path fill="rgb(254,254,254)" stroke="rgb(254,254,254)" stroke-width="1" opacity="1" d="M 127.5 75 Q 130.3 76.3 129 81.5 L 127 85.5 L 128 88 L 124 85.5 L 125 82.5 L 123.5 80 L 125.5 80 L 127 80.5 L 125 81.5 Q 126.5 84.5 128 81.5 L 127.5 75 Z " /><path fill="rgb(254,254,254)" stroke="rgb(254,254,254)" stroke-width="1" opacity="1" d="M 115.5 87 L 118 88.5 L 115.5 90 Q 112.5 88.5 115.5 87 Z " /><path fill="rgb(254,254,254)" stroke="rgb(254,254,254)" stroke-width="1" opacity="1" d="M 72.5 89 L 75 89.5 L 72.5 90 L 72.5 89 Z " /><path fill="rgb(254,254,254)" stroke="rgb(254,254,254)" stroke-width="1" opacity="1" d="M 80.5 89 L 83 89.5 L 80.5 90 L 80.5 89 Z " /><path fill="rgb(254,254,254)" stroke="rgb(254,254,254)" stroke-width="1" opacity="1" d="M 98.5 92 L 102 93.5 L 100.5 93 L 98 93 Q 99.3 97.1 96 96 Q 94.5 92.3 97.5 93 L 98.5 92 Z " /><path fill="rgb(254,254,254)" stroke="rgb(254,254,254)" stroke-width="1" opacity="1" d="M 114 92 Q 120 90 118 96 Q 113.1 97.7 104.5 97 L 104.5 96 L 113.5 96 L 115 94.5 L 114 92 Z " /><path fill="rgb(254,254,254)" stroke="rgb(254,254,254)" stroke-width="1" opacity="1" d="M 109.5 93 L 112 93.5 L 109.5 94 L 109.5 93 Z " /><path fill="rgb(254,254,254)" stroke="rgb(254,254,254)" stroke-width="1" opacity="1" d="M 73.5 95 L 75 97.5 L 73 96.5 L 73.5 95 Z " /><path fill="rgb(254,254,254)" stroke="rgb(254,254,254)" stroke-width="1" opacity="1" d="M 120 96 L 127.5 96 L 128 98 L 120.5 98 L 120 96 Z " /><path fill="rgb(254,254,254)" stroke="rgb(254,254,254)" stroke-width="1" opacity="1" d="M 120.5 101 L 128 101.5 L 120.5 102 L 120.5 101 Z " /><path fill="rgb(254,254,254)" stroke="rgb(254,254,254)" stroke-width="1" opacity="1" d="M 82.5 102 L 83.5 104 L 82.5 102 Z " /><path fill="rgb(254,254,254)" stroke="rgb(254,254,254)" stroke-width="1" opacity="1" d="M 73.5 104 L 74.5 106 L 73.5 104 Z " /><path fill="rgb(254,254,254)" stroke="rgb(254,254,254)" stroke-width="1" opacity="1" d="M 105.5 104 L 104.5 106 L 105.5 104 Z " /><path fill="rgb(254,254,254)" stroke="rgb(254,254,254)" stroke-width="1" opacity="1" d="M 107.5 105 Q 110.5 106.5 107.5 108 Q 104.5 106.5 107.5 105 Z " /><path fill="rgb(254,254,254)" stroke="rgb(254,254,254)" stroke-width="1" opacity="1" d="M 72.5 108 L 73.5 110 L 72.5 108 Z " /><path fill="rgb(254,254,254)" stroke="rgb(254,254,254)" stroke-width="1" opacity="1" d="M 76.5 108 L 77.5 110 L 76.5 108 Z " /><path fill="rgb(254,254,254)" stroke="rgb(254,254,254)" stroke-width="1" opacity="1" d="M 49.5 114 L 50.5 116 L 49.5 114 Z " /><path fill="rgb(254,254,254)" stroke="rgb(254,254,254)" stroke-width="1" opacity="1" d="M 120.5 114 Q 124.3 113.3 125 115.5 Q 124.2 118.1 127.5 117 L 127.5 118 Q 123.8 118.8 123 116.5 Q 123.8 113.9 120.5 115 L 120.5 114 Z " /><path fill="rgb(254,254,254)" stroke="rgb(254,254,254)" stroke-width="1" opacity="1" d="M 153.5 120 L 152.5 122 L 153.5 120 Z " /><path fill="rgb(254,254,254)" stroke="rgb(254,254,254)" stroke-width="1" opacity="1" d="M 53.5 126 L 54.5 128 L 53.5 126 Z " /><path fill="rgb(254,254,254)" stroke="rgb(254,254,254)" stroke-width="1" opacity="1" d="M 180.5 145 L 182.5 148 Q 180.3 148.8 181 146.5 L 180.5 145 Z " /><path fill="rgb(254,254,254)" stroke="rgb(254,254,254)" stroke-width="1" opacity="1" d="M 182.5 159 L 183 167.5 L 182 167.5 L 182.5 159 Z " /><path fill="rgb(254,254,254)" stroke="rgb(254,254,254)" stroke-width="1" opacity="1" d="M 180.5 160 L 181 167.5 L 180 167.5 L 180.5 160 Z " /><path fill="rgb(254,254,254)" stroke="rgb(254,254,254)" stroke-width="1" opacity="1" d="M 16.5 176 L 17 178.5 L 16 178.5 L 16.5 176 Z " /><path fill="rgb(254,254,254)" stroke="rgb(254,254,254)" stroke-width="1" opacity="1" d="M 182.5 176 L 183 178.5 L 180.5 182 L 178.5 182 L 176 181.5 L 182 178.5 L 182.5 176 Z " /><path fill="rgb(254,254,254)" stroke="rgb(254,254,254)" stroke-width="1" opacity="1" d="M 24.5 177 L 23.5 179 L 24.5 177 Z " /><path fill="rgb(254,254,254)" stroke="rgb(254,254,254)" stroke-width="1" opacity="1" d="M 175.5 177 L 178 178.5 L 176.5 179 L 175.5 177 Z " /><path fill="rgb(254,254,254)" stroke="rgb(254,254,254)" stroke-width="1" opacity="1" d="M 18.5 180 L 19 182 L 23.5 181 L 24 183 L 18.5 184 L 16 182.5 L 18 182 L 18.5 180 Z " /><path fill="rgb(255,255,255)" stroke="rgb(255,255,255)" stroke-width="1" opacity="1" d="M 0 0 L 200 0 L 200 200 L 0 200 L 0 0 Z M 28 16 L 28 17 L 30 17 L 28 16 Z M 33 16 L 33 17 L 168 17 L 33 16 Z M 171 16 L 171 17 L 173 17 L 171 16 Z M 25 17 L 26 18 L 26 19 Q 23 18 24 21 L 22 22 Q 19 21 20 25 L 22 25 L 19 27 L 20 30 L 19 30 Q 20 26 17 27 L 18 30 L 17 33 L 17 144 L 16 145 L 16 152 L 18 153 L 16 153 L 17 158 L 17 155 L 18 155 Q 20 160 17 159 L 17 161 Q 19 167 16 169 L 17 171 L 17 170 L 18 170 L 17 172 L 18 173 L 19 171 L 20 171 L 18 176 L 21 174 L 22 176 L 21 175 L 20 177 L 24 180 Q 23 182 26 181 L 26 182 L 22 180 L 18 180 L 16 184 L 20 183 L 27 183 L 27 181 L 30 182 L 31 181 L 170 181 L 172 181 Q 174 180 173 183 L 176 183 L 175 182 L 175 181 Q 177 182 176 179 L 179 178 Q 181 179 180 176 L 178 176 L 181 174 L 180 171 L 181 171 Q 180 174 183 173 L 182 171 L 184 158 L 183 158 L 182 153 Q 186 151 182 149 L 184 148 Q 185 145 183 146 L 183 145 L 183 33 L 182 32 L 183 27 Q 180 26 181 30 L 180 30 L 181 27 L 178 25 L 180 25 L 180 22 L 178 21 Q 175 22 176 19 L 174 19 L 176 18 L 176 17 Q 172 16 173 19 L 171 18 L 170 19 L 31 19 L 29 19 Q 26 20 27 17 L 25 17 Z M 20 18 L 18 20 L 19 21 L 24 19 L 20 18 Z M 177 18 L 177 19 L 182 21 L 182 20 Q 181 17 177 18 Z M 16 21 Q 15 25 18 24 Q 19 20 16 21 Z M 182 21 Q 181 25 184 24 Q 185 20 182 21 Z M 17 29 L 16 32 L 17 32 L 17 29 Z M 184 29 L 183 32 L 184 32 L 184 29 Z M 184 152 L 183 156 L 184 156 L 184 152 Z M 184 168 L 183 171 L 184 171 L 184 168 Z M 17 173 L 16 179 L 17 179 L 17 173 Z M 182 176 Q 181 180 184 179 Q 185 175 182 176 Z M 182 179 L 177 181 L 177 182 Q 181 183 182 181 L 182 179 Z M 28 183 L 28 184 L 30 184 L 28 183 Z M 33 183 L 33 184 L 168 184 L 33 183 Z M 171 183 L 171 184 L 173 184 L 171 183 Z " /><path fill="rgb(255,255,255)" stroke="rgb(255,255,255)" stroke-width="1" opacity="1" d="M 29.5 20 L 171 20.5 L 29.5 21 L 29.5 20 Z " /><path fill="rgb(255,255,255)" stroke="rgb(255,255,255)" stroke-width="1" opacity="1" d="M 27.5 26 L 25.5 29 L 27.5 26 Z " /><path fill="rgb(255,255,255)" stroke="rgb(255,255,255)" stroke-width="1" opacity="1" d="M 30.5 26 L 169.5 26 L 174 30.5 L 173 32.5 L 173 135.5 L 172 136.5 L 176 139.5 L 174.5 140 L 171.5 138 L 174 141.5 L 174.5 144 L 175.5 142 L 176 145.5 L 176 147.5 L 175.5 149 L 172.5 145 Q 171.3 147.3 170 144.5 L 167.5 141 L 162 136.5 L 159 132.5 L 160.5 133 Q 162.8 133.8 162 131.5 L 163 129 L 160.5 128 L 157.5 132 L 158 130.5 L 157.5 129 Q 155.8 131.7 154 127.5 L 154.5 125 L 155.5 128 L 157 125.5 L 153.5 120 L 151.5 121 L 148 116.5 L 150 116 L 150.5 118 Q 153.3 116.8 151 115.5 L 150.5 112 L 148.5 115 L 148 113.5 L 148.5 112 L 145.5 113 L 143.5 112 L 144.5 114 L 147 114.5 L 144.5 115 L 140.5 115 L 139 113.5 L 139.5 112 Q 134.7 113.7 136 109.5 Q 134.8 106.8 133.5 109 L 130 105.5 L 132.5 105 L 134 104.5 L 129.5 104 L 128 104.5 L 128 101 L 120 101 Q 119.3 104.4 122 105.5 L 119.5 107 Q 117.2 102.7 115 107.5 L 116.5 110 Q 115.3 107.8 114 110.5 Q 116.8 112.3 112.5 114 L 111 112.5 L 112.5 110 L 111 109.5 L 113 108.5 Q 111.8 105.8 110.5 108 Q 107.9 108.7 109 106 L 111 105.5 L 103.5 103 L 103 104.5 L 103.5 106 L 96 99.5 L 97 97 Q 94.3 95.9 95 98.5 L 94 98.5 Q 94.7 95.9 92 97 L 91.5 99 Q 89.3 94.8 87 96.5 Q 88.1 93.2 85.5 94 L 78.5 90 L 73 94 Q 74.5 97.7 71.5 97 L 64.5 106 L 66 103.5 L 64.5 102 L 62.5 105 Q 61 102.5 59.5 106 Q 57.3 105.3 58 107.5 L 57 107.5 L 56.5 106 L 56 109.5 L 58 112.5 L 52.5 118 Q 51.3 115.8 50 118.5 L 51 119.5 L 44.5 126 Q 42.8 123.2 41 127.5 L 41.5 129 L 44 127.5 L 40.5 131 L 39 129.5 L 38.5 128 L 34 131.5 L 32 134.5 L 33.5 135 L 37.5 130 L 39 132.5 L 35 134.5 L 35.5 136 L 37 135.5 L 34 137.5 L 34.5 136 Q 32.3 135.3 33 137.5 L 31 138.5 L 32 136.5 L 30 136 Q 31 140.7 27.5 142 L 26.5 140 L 25 143 L 27 143.5 L 25.5 144 L 24 141.5 L 25 139.5 L 24 136.5 L 25 136.5 L 25.5 139 L 27 135.5 L 27 32.5 L 28 31.5 L 27 29.5 L 30.5 26 Z M 30 27 Q 31 30 28 29 L 29 31 L 31 30 L 32 28 L 30 27 Z M 33 28 L 33 29 L 168 29 L 33 28 Z M 170 29 L 171 30 L 172 31 Q 173 28 170 29 Z M 32 30 L 32 31 L 169 31 L 32 30 Z M 122 47 L 120 50 Q 122 53 128 53 L 129 49 Q 128 45 122 47 Z M 97 48 L 97 50 L 96 49 Q 90 47 91 51 L 94 50 Q 96 49 95 52 L 92 53 L 88 51 L 89 54 L 92 57 L 92 59 L 87 65 L 87 67 L 83 70 L 84 75 L 82 76 L 83 73 L 81 72 L 80 79 L 81 79 Q 80 76 84 77 L 83 80 L 87 87 L 86 89 L 88 89 L 90 85 L 89 87 L 92 88 L 92 86 L 94 87 L 96 87 L 98 88 L 96 88 L 97 91 L 99 90 L 100 88 L 101 91 L 105 90 L 107 91 L 112 91 L 110 90 L 114 87 L 115 87 L 114 89 Q 115 91 117 89 Q 119 90 118 88 L 116 88 L 117 86 L 115 85 L 119 84 L 118 83 L 122 79 Q 124 83 126 82 L 124 86 L 128 88 L 127 86 L 129 82 L 128 74 L 125 75 L 127 71 Q 128 68 126 69 L 124 67 L 126 67 L 128 66 L 127 64 L 128 62 L 127 59 Q 123 60 125 56 L 122 56 L 123 61 L 121 61 L 117 58 L 116 60 L 115 59 Q 117 57 115 56 L 110 58 L 108 58 L 110 57 L 107 56 L 112 54 L 104 52 L 102 50 L 101 52 L 100 52 L 101 50 L 97 48 Z M 113 50 L 111 52 L 113 52 L 113 50 Z M 114 53 L 114 54 L 119 54 L 114 53 Z M 117 56 L 119 58 Q 120 55 117 56 Z M 89 57 L 89 59 Q 88 61 91 60 L 90 59 Q 91 56 89 57 Z M 80 64 L 81 67 Q 80 69 83 68 L 82 66 Q 83 63 80 64 Z M 81 69 L 80 72 L 81 72 L 81 69 Z M 83 80 L 82 83 L 83 83 L 83 80 Z M 84 84 L 82 88 L 84 87 L 84 84 Z M 73 89 L 75 91 Q 76 88 73 89 Z M 81 89 L 81 90 Q 85 89 87 92 L 88 92 Q 87 88 81 89 Z M 99 92 L 98 93 Q 95 92 96 96 L 99 97 L 99 95 L 103 97 L 105 97 L 114 97 L 115 96 Q 120 98 118 92 L 114 93 L 112 92 L 109 94 L 105 92 L 104 94 L 99 92 Z M 69 96 L 70 98 Q 71 95 69 96 Z M 120 96 L 121 98 L 128 98 L 128 96 L 120 96 Z M 100 97 L 100 99 L 99 99 L 100 101 L 103 100 L 103 99 L 100 97 Z M 104 100 L 103 101 Q 100 100 101 103 L 104 102 L 104 100 Z M 112 104 L 113 105 L 114 108 L 116 105 L 112 104 Z M 135 105 L 132 107 Q 134 110 135 107 L 135 105 Z M 49 112 L 49 117 Q 52 118 51 116 L 51 114 L 49 112 Z M 54 112 L 55 113 Q 56 115 57 113 L 54 112 Z M 41 120 L 40 122 L 42 123 L 41 120 Z M 48 120 L 46 123 L 49 121 L 48 120 Z M 43 121 L 43 123 L 45 122 L 43 121 Z M 157 121 Q 159 123 159 129 L 160 124 L 157 121 Z M 43 123 L 40 127 L 43 125 L 43 123 Z M 164 128 Q 163 130 166 129 L 168 133 L 168 130 Q 167 127 164 128 Z M 34 129 L 32 132 L 34 131 L 34 129 Z M 164 131 L 164 132 L 166 132 L 164 131 Z M 162 133 L 163 137 L 164 137 Q 165 132 162 133 Z M 166 133 L 167 138 L 171 138 L 168 137 L 167 135 Q 168 132 166 133 Z M 167 138 Q 165 141 168 140 L 167 138 Z M 170 139 L 168 141 L 170 141 L 171 145 L 172 145 Q 173 140 170 139 Z " /><path fill="rgb(255,255,255)" stroke="rgb(255,255,255)" stroke-width="1" opacity="1" d="M 172.5 26 L 174.5 29 L 172.5 26 Z " /><path fill="rgb(255,255,255)" stroke="rgb(255,255,255)" stroke-width="1" opacity="1" d="M 24.5 30 L 25.5 32 L 24.5 30 Z " /><path fill="rgb(255,255,255)" stroke="rgb(255,255,255)" stroke-width="1" opacity="1" d="M 92.5 54 Q 95.5 53.1 94 57.5 L 93 57.5 L 92.5 54 Z " /><path fill="rgb(255,255,255)" stroke="rgb(255,255,255)" stroke-width="1" opacity="1" d="M 99.5 57 L 100.5 59 L 99.5 57 Z " /><path fill="rgb(255,255,255)" stroke="rgb(255,255,255)" stroke-width="1" opacity="1" d="M 124.5 61 L 126 64.5 L 124.5 64 L 123 63.5 L 124.5 61 Z " /><path fill="rgb(255,255,255)" stroke="rgb(255,255,255)" stroke-width="1" opacity="1" d="M 89.5 64 L 88.5 66 L 89.5 64 Z " /><path fill="rgb(255,255,255)" stroke="rgb(255,255,255)" stroke-width="1" opacity="1" d="M 87.5 68 L 88 70 Q 85 68.8 86 72.5 L 85 72.5 Q 84.5 68.5 87.5 68 Z " /><path fill="rgb(255,255,255)" stroke="rgb(255,255,255)" stroke-width="1" opacity="1" d="M 93.5 68 L 95 68.5 L 93 69 L 92.5 71 L 92 69.5 L 93.5 68 Z " /><path fill="rgb(255,255,255)" stroke="rgb(255,255,255)" stroke-width="1" opacity="1" d="M 91.5 73 L 92 79.5 L 94 81.5 L 91 79.5 L 91.5 73 Z " /><path fill="rgb(255,255,255)" stroke="rgb(255,255,255)" stroke-width="1" opacity="1" d="M 85.5 74 L 86 79.5 L 85 79.5 L 85.5 74 Z " /><path fill="rgb(255,255,255)" stroke="rgb(255,255,255)" stroke-width="1" opacity="1" d="M 86.5 81 L 88 84.5 L 87 84.5 L 86.5 81 Z " /><path fill="rgb(255,255,255)" stroke="rgb(255,255,255)" stroke-width="1" opacity="1" d="M 79.5 92 L 82 93.5 L 78 94 Q 79.1 96.7 76.5 96 L 75 96.5 L 76 94 L 79.5 92 Z " /><path fill="rgb(255,255,255)" stroke="rgb(255,255,255)" stroke-width="1" opacity="1" d="M 72.5 98 L 71.5 100 L 72.5 98 Z " /><path fill="rgb(255,255,255)" stroke="rgb(255,255,255)" stroke-width="1" opacity="1" d="M 82.5 100 L 84.5 103 Q 82.8 99.9 81 101.5 L 82.5 100 Z " /><path fill="rgb(255,255,255)" stroke="rgb(255,255,255)" stroke-width="1" opacity="1" d="M 76.5 101 L 78 101.5 L 76 102.5 L 78.5 104 L 80 103.5 Q 80.8 105.8 78.5 105 L 75 107 L 73 111 L 75 111.5 L 71.5 115 L 70.5 114 L 69 113.5 L 71 113 Q 72.5 109.3 69.5 110 L 69.5 112 L 68 109 L 71.5 108 L 73 108.5 L 75.5 105 L 77 104.5 L 74 103.5 L 76.5 101 Z " /><path fill="rgb(255,255,255)" stroke="rgb(255,255,255)" stroke-width="1" opacity="1" d="M 81.5 103 L 83 104.5 L 79.5 108 L 76.5 110 L 79.5 106 L 82 104.5 L 81.5 103 Z " /><path fill="rgb(255,255,255)" stroke="rgb(255,255,255)" stroke-width="1" opacity="1" d="M 71.5 105 L 70.5 107 L 71.5 105 Z " /><path fill="rgb(255,255,255)" stroke="rgb(255,255,255)" stroke-width="1" opacity="1" d="M 59.5 107 L 60.5 109 L 59.5 107 Z " /><path fill="rgb(255,255,255)" stroke="rgb(255,255,255)" stroke-width="1" opacity="1" d="M 106.5 107 L 108.5 110 L 106.5 107 Z " /><path fill="rgb(255,255,255)" stroke="rgb(255,255,255)" stroke-width="1" opacity="1" d="M 123.5 110 L 123.5 112 L 126 112 Q 124.8 115 128.5 114 L 127.5 111 L 129.5 111 L 134 115.5 L 133.5 117 L 132.5 115 L 128.5 117 Q 124.1 118.5 125 115.5 L 122 111.5 L 123.5 110 Z " /><path fill="rgb(255,255,255)" stroke="rgb(255,255,255)" stroke-width="1" opacity="1" d="M 66.5 111 L 68.5 115 Q 71.1 114.3 70 117 L 63.5 122 L 60.5 121 L 57.5 125 L 61.5 122 L 62 124 L 54.5 130 L 52.5 129 L 53 130.5 L 52.5 132 L 52 130 Q 49.3 128.9 50 131.5 Q 52.8 133.3 48.5 135 L 45 132.5 L 48 130.5 L 47 133 L 50 132.5 L 49 130.5 L 52 128.5 Q 47.7 126.2 52.5 124 L 54.5 123 L 57 124 L 58 120.5 Q 55.8 119.3 58.5 118 L 58.5 120 Q 60.8 120.8 60 118.5 Q 63.1 116.8 61.5 115 Q 63.8 115.8 63 113.5 L 64 113.5 L 64.5 115 L 65 113 L 67 112.5 L 66.5 111 Z M 63 117 Q 61 120 64 119 L 63 117 Z M 53 125 L 54 129 L 56 128 L 53 125 Z M 56 125 L 57 127 Q 58 124 56 125 Z " /><path fill="rgb(255,255,255)" stroke="rgb(255,255,255)" stroke-width="1" opacity="1" d="M 118.5 114 L 123 115 L 125 120 L 122 120 L 122 118 Q 119.3 119.1 120 116.5 L 117 115.5 L 118.5 114 Z " /><path fill="rgb(255,255,255)" stroke="rgb(255,255,255)" stroke-width="1" opacity="1" d="M 118.5 117 L 120 119.5 L 118 118.5 L 118.5 117 Z " /><path fill="rgb(255,255,255)" stroke="rgb(255,255,255)" stroke-width="1" opacity="1" d="M 130.5 117 L 132 117.5 L 129.5 119 L 130.5 117 Z " /><path fill="rgb(255,255,255)" stroke="rgb(255,255,255)" stroke-width="1" opacity="1" d="M 151.5 122 L 154 123.5 L 152.5 124 L 151.5 122 Z " /><path fill="rgb(255,255,255)" stroke="rgb(255,255,255)" stroke-width="1" opacity="1" d="M 44.5 134 L 46.5 137 Q 44.7 133.3 43 136.5 L 41.5 139 L 39.5 140 L 44.5 134 Z " /><path fill="rgb(255,255,255)" stroke="rgb(255,255,255)" stroke-width="1" opacity="1" d="M 32.5 140 L 29.5 144 L 30 142.5 Q 29.3 140.3 31.5 141 L 32.5 140 Z " /><path fill="rgb(255,255,255)" stroke="rgb(255,255,255)" stroke-width="1" opacity="1" d="M 41.5 140 L 40.5 142 L 41.5 140 Z " /><path fill="rgb(255,255,255)" stroke="rgb(255,255,255)" stroke-width="1" opacity="1" d="M 37.5 142 L 39 142.5 L 37 143.5 Q 39.8 145.2 35.5 147 L 37.5 142 Z " /><path fill="rgb(255,255,255)" stroke="rgb(255,255,255)" stroke-width="1" opacity="1" d="M 24.5 145 L 29 145.5 L 25 147.5 Q 27.2 148.8 24.5 150 L 24 147.5 L 24.5 145 Z " /><path fill="rgb(255,255,255)" stroke="rgb(255,255,255)" stroke-width="1" opacity="1" d="M 166.5 147 L 171.5 153 L 166.5 147 Z " /><path fill="rgb(255,255,255)" stroke="rgb(255,255,255)" stroke-width="1" opacity="1" d="M 32.5 148 L 31.5 150 L 32.5 148 Z " /><path fill="rgb(255,255,255)" stroke="rgb(255,255,255)" stroke-width="1" opacity="1" d="M 172.5 154 L 175 155.5 L 176 158.5 L 175 158.5 L 174.5 157 L 173.5 159 L 171 155.5 L 172.5 154 Z M 173 155 L 174 157 Q 175 154 173 155 Z " /><path fill="rgb(255,255,255)" stroke="rgb(255,255,255)" stroke-width="1" opacity="1" d="M 19.5 157 L 20 168.5 L 19 168.5 L 19.5 157 Z " /><path fill="rgb(255,255,255)" stroke="rgb(255,255,255)" stroke-width="1" opacity="1" d="M 172.5 170 L 175 171.5 L 172 173.5 L 173.5 171 L 169.5 174 L 30.5 174 L 28.5 173 Q 26.8 175.8 25 171.5 L 27.5 173 L 28.5 172 L 31.5 173 L 168.5 173 L 172.5 170 Z " /><path fill="rgb(255,255,255)" stroke="rgb(255,255,255)" stroke-width="1" opacity="1" d="M 29.5 179 L 171 179.5 L 29.5 180 L 29.5 179 Z " /><path fill="rgb(241,241,240)" stroke="rgb(241,241,240)" stroke-width="1" opacity="1" d="M 27.5 21 L 31 21.5 L 27.5 22 L 27.5 21 Z " /><path fill="rgb(241,241,240)" stroke="rgb(241,241,240)" stroke-width="1" opacity="1" d="M 32.5 21 L 168 21.5 L 32.5 22 L 32.5 21 Z " /><path fill="rgb(241,241,240)" stroke="rgb(241,241,240)" stroke-width="1" opacity="1" d="M 169.5 21 L 173 21.5 L 169.5 22 L 169.5 21 Z " /><path fill="rgb(241,241,240)" stroke="rgb(241,241,240)" stroke-width="1" opacity="1" d="M 23.5 22 L 24 24 L 22 23.5 L 23.5 22 Z " /><path fill="rgb(241,241,240)" stroke="rgb(241,241,240)" stroke-width="1" opacity="1" d="M 176.5 22 L 177.5 24 Q 174.7 24.7 176.5 22 Z " /><path fill="rgb(241,241,240)" stroke="rgb(241,241,240)" stroke-width="1" opacity="1" d="M 28.5 26 L 32 27.5 L 30.5 28 L 28 27 L 27.5 29 L 27 27.5 L 28.5 26 Z " /><path fill="rgb(241,241,240)" stroke="rgb(241,241,240)" stroke-width="1" opacity="1" d="M 170.5 26 L 173.5 28 L 175 27.5 L 172 29 Q 173.1 26.3 170.5 27 L 170.5 26 Z " /><path fill="rgb(241,241,240)" stroke="rgb(241,241,240)" stroke-width="1" opacity="1" d="M 17.5 27 L 19 29.5 L 17 28.5 L 17.5 27 Z " /><path fill="rgb(241,241,240)" stroke="rgb(241,241,240)" stroke-width="1" opacity="1" d="M 182.5 27 L 183 28.5 L 181 29.5 L 182.5 27 Z " /><path fill="rgb(241,241,240)" stroke="rgb(241,241,240)" stroke-width="1" opacity="1" d="M 168.5 30 L 169.5 32 L 168.5 30 Z " /><path fill="rgb(241,241,240)" stroke="rgb(241,241,240)" stroke-width="1" opacity="1" d="M 97.5 52 L 99 52.5 L 94.5 56 L 97.5 52 Z " /><path fill="rgb(241,241,240)" stroke="rgb(241,241,240)" stroke-width="1" opacity="1" d="M 101.5 54 L 103.5 57 L 101.5 54 Z " /><path fill="rgb(241,241,240)" stroke="rgb(241,241,240)" stroke-width="1" opacity="1" d="M 107.5 56 L 112.5 57 L 114 56.5 Q 111.8 61.3 109.5 57 L 105.5 58 L 105.5 57 L 107.5 56 Z " /><path fill="rgb(241,241,240)" stroke="rgb(241,241,240)" stroke-width="1" opacity="1" d="M 117.5 59 L 120 62.5 L 119 62.5 L 117.5 60 L 116 60.5 L 117.5 59 Z " /><path fill="rgb(241,241,240)" stroke="rgb(241,241,240)" stroke-width="1" opacity="1" d="M 122.5 64 L 125 64.5 L 122.5 65 L 122.5 64 Z " /><path fill="rgb(241,241,240)" stroke="rgb(241,241,240)" stroke-width="1" opacity="1" d="M 124.5 68 L 126 72.5 L 125 72.5 L 124.5 68 Z " /><path fill="rgb(241,241,240)" stroke="rgb(241,241,240)" stroke-width="1" opacity="1" d="M 87.5 70 L 86.5 72 L 87.5 70 Z " /><path fill="rgb(241,241,240)" stroke="rgb(241,241,240)" stroke-width="1" opacity="1" d="M 86.5 74 L 87 76.5 L 86 76.5 L 86.5 74 Z " /><path fill="rgb(241,241,240)" stroke="rgb(241,241,240)" stroke-width="1" opacity="1" d="M 122.5 76 L 121 78.5 Q 121.7 81.1 119 80 L 119.5 77 Q 121 79.5 122.5 76 Z " /><path fill="rgb(241,241,240)" stroke="rgb(241,241,240)" stroke-width="1" opacity="1" d="M 87.5 82 L 88.5 84 L 87.5 82 Z " /><path fill="rgb(241,241,240)" stroke="rgb(241,241,240)" stroke-width="1" opacity="1" d="M 90.5 85 L 91 87 L 89 86.5 L 90.5 85 Z " /><path fill="rgb(241,241,240)" stroke="rgb(241,241,240)" stroke-width="1" opacity="1" d="M 92.5 86 L 95 86.5 L 92.5 87 L 92.5 86 Z " /><path fill="rgb(241,241,240)" stroke="rgb(241,241,240)" stroke-width="1" opacity="1" d="M 79.5 94 L 81 94.5 L 78.5 96 L 79.5 94 Z " /><path fill="rgb(241,241,240)" stroke="rgb(241,241,240)" stroke-width="1" opacity="1" d="M 86.5 97 L 89 97.5 L 86.5 98 L 86.5 97 Z " /><path fill="rgb(241,241,240)" stroke="rgb(241,241,240)" stroke-width="1" opacity="1" d="M 93.5 98 L 92.5 100 L 93.5 98 Z " /><path fill="rgb(241,241,240)" stroke="rgb(241,241,240)" stroke-width="1" opacity="1" d="M 80.5 99 Q 83.3 104.4 86 102.5 L 80 107.5 L 80.5 105 Q 82.3 107.8 84 103.5 L 80.5 99 Z " /><path fill="rgb(241,241,240)" stroke="rgb(241,241,240)" stroke-width="1" opacity="1" d="M 68.5 100 L 69.5 102 L 66.5 103 L 65.5 101 Q 67 103.5 68.5 100 Z " /><path fill="rgb(241,241,240)" stroke="rgb(241,241,240)" stroke-width="1" opacity="1" d="M 97.5 100 L 100.5 103 L 101.5 102 L 103 102.5 L 100.5 104 L 97.5 100 Z " /><path fill="rgb(241,241,240)" stroke="rgb(241,241,240)" stroke-width="1" opacity="1" d="M 76.5 102 L 78 102.5 L 75.5 104 L 76.5 102 Z " /><path fill="rgb(241,241,240)" stroke="rgb(241,241,240)" stroke-width="1" opacity="1" d="M 58.5 104 L 57.5 106 L 58.5 104 Z " /><path fill="rgb(241,241,240)" stroke="rgb(241,241,240)" stroke-width="1" opacity="1" d="M 62.5 105 L 60.5 110 L 57.5 111 L 56.5 109 Q 58.3 111.8 60 107.5 Q 59.3 105.3 61.5 106 L 62.5 105 Z " /><path fill="rgb(241,241,240)" stroke="rgb(241,241,240)" stroke-width="1" opacity="1" d="M 129.5 105 L 130.5 107 L 129.5 105 Z " /><path fill="rgb(241,241,240)" stroke="rgb(241,241,240)" stroke-width="1" opacity="1" d="M 117.5 106 L 119 106.5 L 116.5 108 L 117.5 106 Z " /><path fill="rgb(241,241,240)" stroke="rgb(241,241,240)" stroke-width="1" opacity="1" d="M 132.5 106 L 134.5 109 L 132.5 106 Z " /><path fill="rgb(241,241,240)" stroke="rgb(241,241,240)" stroke-width="1" opacity="1" d="M 105.5 107 L 108.5 111 L 105.5 107 Z " /><path fill="rgb(241,241,240)" stroke="rgb(241,241,240)" stroke-width="1" opacity="1" d="M 67.5 108 L 67.5 111 L 66 110.5 Q 66.8 112.8 64.5 112 L 63 112.5 L 67.5 108 Z " /><path fill="rgb(241,241,240)" stroke="rgb(241,241,240)" stroke-width="1" opacity="1" d="M 114.5 108 L 116 109.5 L 112.5 113 L 112 110.5 L 114.5 108 Z " /><path fill="rgb(241,241,240)" stroke="rgb(241,241,240)" stroke-width="1" opacity="1" d="M 127.5 109 L 128.5 111 L 127.5 109 Z " /><path fill="rgb(241,241,240)" stroke="rgb(241,241,240)" stroke-width="1" opacity="1" d="M 53.5 112 L 51.5 115 L 53.5 112 Z " /><path fill="rgb(241,241,240)" stroke="rgb(241,241,240)" stroke-width="1" opacity="1" d="M 74.5 112 L 73.5 114 L 74.5 112 Z " /><path fill="rgb(241,241,240)" stroke="rgb(241,241,240)" stroke-width="1" opacity="1" d="M 129.5 112 L 131.5 115 Q 130.3 112.8 129 115.5 L 131 118.5 L 129 117.5 L 128 115.5 L 129.5 112 Z " /><path fill="rgb(241,241,240)" stroke="rgb(241,241,240)" stroke-width="1" opacity="1" d="M 141.5 112 L 139.5 115 L 141.5 112 Z " /><path fill="rgb(241,241,240)" stroke="rgb(241,241,240)" stroke-width="1" opacity="1" d="M 54.5 114 L 48.5 121 L 54.5 114 Z " /><path fill="rgb(241,241,240)" stroke="rgb(241,241,240)" stroke-width="1" opacity="1" d="M 61.5 114 L 64 115.5 L 62.5 115 L 61.5 114 Z " /><path fill="rgb(241,241,240)" stroke="rgb(241,241,240)" stroke-width="1" opacity="1" d="M 118.5 115 L 117.5 119 Q 114 117 118.5 115 Z " /><path fill="rgb(241,241,240)" stroke="rgb(241,241,240)" stroke-width="1" opacity="1" d="M 134.5 115 L 135.5 117 Q 132.7 117.7 134.5 115 Z " /><path fill="rgb(241,241,240)" stroke="rgb(241,241,240)" stroke-width="1" opacity="1" d="M 62.5 117 L 63 118.5 L 61 119.5 L 62.5 117 Z " /><path fill="rgb(241,241,240)" stroke="rgb(241,241,240)" stroke-width="1" opacity="1" d="M 45.5 120 L 44.5 122 L 45.5 120 Z " /><path fill="rgb(241,241,240)" stroke="rgb(241,241,240)" stroke-width="1" opacity="1" d="M 46.5 122 Q 49.5 123.5 46.5 125 L 46.5 122 Z " /><path fill="rgb(241,241,240)" stroke="rgb(241,241,240)" stroke-width="1" opacity="1" d="M 52.5 125 L 50.5 128 L 49 128.5 L 49.5 130 Q 47.3 130.8 48 128.5 L 52.5 125 Z " /><path fill="rgb(241,241,240)" stroke="rgb(241,241,240)" stroke-width="1" opacity="1" d="M 56.5 126 L 59 126.5 L 55.5 130 L 54 128.5 L 57 127.5 L 56.5 126 Z " /><path fill="rgb(241,241,240)" stroke="rgb(241,241,240)" stroke-width="1" opacity="1" d="M 41.5 128 L 40.5 130 L 41.5 128 Z " /><path fill="rgb(241,241,240)" stroke="rgb(241,241,240)" stroke-width="1" opacity="1" d="M 156.5 128 L 157.5 130 L 156.5 128 Z " /><path fill="rgb(241,241,240)" stroke="rgb(241,241,240)" stroke-width="1" opacity="1" d="M 52.5 129 L 51.5 131 L 52.5 129 Z " /><path fill="rgb(241,241,240)" stroke="rgb(241,241,240)" stroke-width="1" opacity="1" d="M 40.5 131 L 39.5 133 L 40.5 131 Z " /><path fill="rgb(241,241,240)" stroke="rgb(241,241,240)" stroke-width="1" opacity="1" d="M 49.5 132 L 50.5 134 L 49.5 132 Z " /><path fill="rgb(241,241,240)" stroke="rgb(241,241,240)" stroke-width="1" opacity="1" d="M 160.5 132 L 161.5 136 Q 157 134 160.5 132 Z " /><path fill="rgb(241,241,240)" stroke="rgb(241,241,240)" stroke-width="1" opacity="1" d="M 162.5 133 L 164 136.5 L 163 136.5 L 162.5 133 Z " /><path fill="rgb(241,241,240)" stroke="rgb(241,241,240)" stroke-width="1" opacity="1" d="M 43.5 134 L 42.5 136 L 43.5 134 Z " /><path fill="rgb(241,241,240)" stroke="rgb(241,241,240)" stroke-width="1" opacity="1" d="M 35.5 135 L 34.5 137 L 35.5 135 Z " /><path fill="rgb(241,241,240)" stroke="rgb(241,241,240)" stroke-width="1" opacity="1" d="M 46.5 135 L 49 135.5 L 46 137.5 L 46.5 135 Z " /><path fill="rgb(241,241,240)" stroke="rgb(241,241,240)" stroke-width="1" opacity="1" d="M 43.5 137 L 43 138.5 L 42.5 140 L 42 138.5 L 43.5 137 Z " /><path fill="rgb(241,241,240)" stroke="rgb(241,241,240)" stroke-width="1" opacity="1" d="M 165.5 137 L 167.5 140 L 165.5 137 Z " /><path fill="rgb(241,241,240)" stroke="rgb(241,241,240)" stroke-width="1" opacity="1" d="M 40.5 139 L 42 141.5 L 37.5 146 L 36 144.5 Q 38.5 146.3 41 141.5 L 40.5 139 Z " /><path fill="rgb(241,241,240)" stroke="rgb(241,241,240)" stroke-width="1" opacity="1" d="M 38.5 140 L 37.5 142 L 38.5 140 Z " /><path fill="rgb(241,241,240)" stroke="rgb(241,241,240)" stroke-width="1" opacity="1" d="M 29.5 141 L 28.5 143 L 29.5 141 Z " /><path fill="rgb(241,241,240)" stroke="rgb(241,241,240)" stroke-width="1" opacity="1" d="M 167.5 141 L 169.5 144 L 167.5 141 Z " /><path fill="rgb(241,241,240)" stroke="rgb(241,241,240)" stroke-width="1" opacity="1" d="M 171.5 142 L 172 144.5 L 171 144.5 L 171.5 142 Z " /><path fill="rgb(241,241,240)" stroke="rgb(241,241,240)" stroke-width="1" opacity="1" d="M 25.5 145 L 27 146.5 Q 23.9 148.3 25.5 150 L 24 148.5 Q 27.1 146.8 25.5 145 Z " /><path fill="rgb(241,241,240)" stroke="rgb(241,241,240)" stroke-width="1" opacity="1" d="M 174.5 145 L 173.5 147 L 174.5 145 Z " /><path fill="rgb(241,241,240)" stroke="rgb(241,241,240)" stroke-width="1" opacity="1" d="M 32.5 149 L 31.5 151 L 32.5 149 Z " /><path fill="rgb(241,241,240)" stroke="rgb(241,241,240)" stroke-width="1" opacity="1" d="M 169.5 152 L 172 153.5 L 170 154.5 L 170.5 153 L 169.5 152 Z " /><path fill="rgb(241,241,240)" stroke="rgb(241,241,240)" stroke-width="1" opacity="1" d="M 181.5 152 L 182 155.5 L 181 155.5 L 181.5 152 Z " /><path fill="rgb(241,241,240)" stroke="rgb(241,241,240)" stroke-width="1" opacity="1" d="M 172.5 155 Q 174.3 158.1 176 156.5 L 174.5 158 Q 172.8 154.9 171 156.5 L 172.5 155 Z " /><path fill="rgb(241,241,240)" stroke="rgb(241,241,240)" stroke-width="1" opacity="1" d="M 181.5 170 L 183 172.5 L 182 172.5 L 181.5 170 Z " /><path fill="rgb(241,241,240)" stroke="rgb(241,241,240)" stroke-width="1" opacity="1" d="M 26.5 171 Q 29.5 172.5 26.5 174 Q 23.5 172.5 26.5 171 Z " /><path fill="rgb(241,241,240)" stroke="rgb(241,241,240)" stroke-width="1" opacity="1" d="M 172 171 L 175 172.5 Q 173.5 175.5 172 172.5 L 172 171 Z " /><path fill="rgb(241,241,240)" stroke="rgb(241,241,240)" stroke-width="1" opacity="1" d="M 176 176 L 178 176.5 L 176 177.5 L 176 176 Z " /><path fill="rgb(241,241,240)" stroke="rgb(241,241,240)" stroke-width="1" opacity="1" d="M 27.5 178 L 31 178.5 L 27.5 179 L 27.5 178 Z " /><path fill="rgb(241,241,240)" stroke="rgb(241,241,240)" stroke-width="1" opacity="1" d="M 32.5 178 L 168 178.5 L 32.5 179 L 32.5 178 Z " /><path fill="rgb(241,241,240)" stroke="rgb(241,241,240)" stroke-width="1" opacity="1" d="M 169.5 178 L 173 178.5 L 169.5 179 L 169.5 178 Z " /><path fill="rgb(247,251,121)" stroke="rgb(247,251,121)" stroke-width="1" opacity="1" d="M 102.5 62 Q 114.7 60.3 118 67.5 Q 119.1 75.1 114.5 77 L 104.5 82 Q 97.4 81.3 94 83 L 92 79.5 L 92 71.5 L 97 68 L 100.5 63 L 102.5 62 Z " /><path fill="rgb(247,251,121)" stroke="rgb(247,251,121)" stroke-width="1" opacity="1" d="M 121.5 64 Q 125.8 65.8 124 73.5 L 121.5 77 L 120 76.5 Q 123.4 73.9 122 66.5 L 121.5 64 Z " /><path fill="rgb(247,251,121)" stroke="rgb(247,251,121)" stroke-width="1" opacity="1" d="M 117.5 79 L 120 80.5 L 115 84.5 Q 115.8 86.8 113.5 86 L 110.5 89 L 105.5 90 L 100 87.5 Q 104 84 111.5 84 L 117.5 79 Z " /><path fill="rgb(250,250,250)" stroke="rgb(250,250,250)" stroke-width="1" opacity="1" d="M 24 19 L 29 20.5 L 24 22 L 24 19 Z " /><path fill="rgb(250,250,250)" stroke="rgb(250,250,250)" stroke-width="1" opacity="1" d="M 173.5 19 Q 177.7 17.9 176 22 L 171 20.5 L 173.5 19 Z " /><path fill="rgb(250,250,250)" stroke="rgb(250,250,250)" stroke-width="1" opacity="1" d="M 21 22 L 23 22.5 L 20 24.5 L 21 22 Z " /><path fill="rgb(250,250,250)" stroke="rgb(250,250,250)" stroke-width="1" opacity="1" d="M 177.5 22 Q 179.8 21.3 179 23.5 L 179.5 25 L 177.5 22 Z " /><path fill="rgb(250,250,250)" stroke="rgb(250,250,250)" stroke-width="1" opacity="1" d="M 32.5 28 L 168 28.5 L 32.5 29 L 32.5 28 Z " /><path fill="rgb(250,250,250)" stroke="rgb(250,250,250)" stroke-width="1" opacity="1" d="M 171.5 29 L 173 31.5 L 171 30.5 L 171.5 29 Z " /><path fill="rgb(250,250,250)" stroke="rgb(250,250,250)" stroke-width="1" opacity="1" d="M 18.5 32 L 19 143.5 L 18 143.5 L 18.5 32 Z " /><path fill="rgb(250,250,250)" stroke="rgb(250,250,250)" stroke-width="1" opacity="1" d="M 181.5 32 L 182 144.5 L 181 144.5 L 181.5 32 Z " /><path fill="rgb(250,250,250)" stroke="rgb(250,250,250)" stroke-width="1" opacity="1" d="M 91 49 L 93 49.5 L 91 50.5 L 91 49 Z " /><path fill="rgb(250,250,250)" stroke="rgb(250,250,250)" stroke-width="1" opacity="1" d="M 95.5 49 L 97 52 Q 93.5 53.1 95.5 49 Z " /><path fill="rgb(250,250,250)" stroke="rgb(250,250,250)" stroke-width="1" opacity="1" d="M 99.5 50 L 100 53 L 102 53.5 L 99.5 55 L 99 52.5 L 99.5 50 Z " /><path fill="rgb(250,250,250)" stroke="rgb(250,250,250)" stroke-width="1" opacity="1" d="M 90.5 53 L 93 58 L 90.5 57 L 89 57.5 L 91 54.5 L 90.5 53 Z " /><path fill="rgb(250,250,250)" stroke="rgb(250,250,250)" stroke-width="1" opacity="1" d="M 104.5 56 L 105 58 L 103 57.5 L 104.5 56 Z " /><path fill="rgb(250,250,250)" stroke="rgb(250,250,250)" stroke-width="1" opacity="1" d="M 114.5 56 L 115.5 58 L 113 57.5 L 114.5 56 Z " /><path fill="rgb(250,250,250)" stroke="rgb(250,250,250)" stroke-width="1" opacity="1" d="M 117.5 56 L 118.5 58 Q 115.7 58.7 117.5 56 Z " /><path fill="rgb(250,250,250)" stroke="rgb(250,250,250)" stroke-width="1" opacity="1" d="M 89.5 59 L 88.5 61 L 89.5 59 Z " /><path fill="rgb(250,250,250)" stroke="rgb(250,250,250)" stroke-width="1" opacity="1" d="M 120 62 L 122 62.5 L 120 63.5 L 120 62 Z " /><path fill="rgb(250,250,250)" stroke="rgb(250,250,250)" stroke-width="1" opacity="1" d="M 85.5 67 L 87 67.5 L 84 70.5 L 85 71.5 L 84.5 74 L 83 70.5 L 85.5 67 Z " /><path fill="rgb(250,250,250)" stroke="rgb(250,250,250)" stroke-width="1" opacity="1" d="M 80.5 70 L 81 72 L 83 72.5 L 81 73.5 L 80.5 70 Z " /><path fill="rgb(250,250,250)" stroke="rgb(250,250,250)" stroke-width="1" opacity="1" d="M 127.5 73 L 128 74.5 L 127 76.5 L 128 80 L 124.5 78 L 123 78.5 L 124.5 75 L 125.5 77 L 127.5 73 Z " /><path fill="rgb(250,250,250)" stroke="rgb(250,250,250)" stroke-width="1" opacity="1" d="M 120.5 77 L 121.5 79 L 120.5 77 Z " /><path fill="rgb(250,250,250)" stroke="rgb(250,250,250)" stroke-width="1" opacity="1" d="M 84.5 79 L 85.5 81 L 87 80.5 L 84 82 L 84.5 79 Z " /><path fill="rgb(250,250,250)" stroke="rgb(250,250,250)" stroke-width="1" opacity="1" d="M 82.5 80 L 83 82.5 L 82 82.5 L 82.5 80 Z " /><path fill="rgb(250,250,250)" stroke="rgb(250,250,250)" stroke-width="1" opacity="1" d="M 116.5 85 L 115.5 87 L 116.5 85 Z " /><path fill="rgb(250,250,250)" stroke="rgb(250,250,250)" stroke-width="1" opacity="1" d="M 87 87 L 89 87.5 L 87 88.5 L 87 87 Z " /><path fill="rgb(250,250,250)" stroke="rgb(250,250,250)" stroke-width="1" opacity="1" d="M 98.5 87 L 100 87.5 L 96.5 90 L 96 88 L 98.5 87 Z " /><path fill="rgb(250,250,250)" stroke="rgb(250,250,250)" stroke-width="1" opacity="1" d="M 101.5 88 L 104 89.5 L 102.5 90 L 101.5 88 Z " /><path fill="rgb(250,250,250)" stroke="rgb(250,250,250)" stroke-width="1" opacity="1" d="M 79.5 91 L 84 92.5 L 80.5 93 L 79.5 91 Z " /><path fill="rgb(250,250,250)" stroke="rgb(250,250,250)" stroke-width="1" opacity="1" d="M 85.5 94 L 87 97 L 83 95.5 L 85.5 94 Z " /><path fill="rgb(250,250,250)" stroke="rgb(250,250,250)" stroke-width="1" opacity="1" d="M 106 94 L 111 95.5 L 106 96 L 106 94 Z " /><path fill="rgb(250,250,250)" stroke="rgb(250,250,250)" stroke-width="1" opacity="1" d="M 102 95 L 104 95.5 L 103.5 98 L 102 95 Z " /><path fill="rgb(250,250,250)" stroke="rgb(250,250,250)" stroke-width="1" opacity="1" d="M 69.5 96 L 70 98 L 72 98.5 L 70 99.5 L 70.5 101 Q 68.3 101.8 69 99.5 L 69 97.5 L 69.5 96 Z " /><path fill="rgb(250,250,250)" stroke="rgb(250,250,250)" stroke-width="1" opacity="1" d="M 89.5 97 L 90.5 99 Q 87.7 99.7 89.5 97 Z " /><path fill="rgb(250,250,250)" stroke="rgb(250,250,250)" stroke-width="1" opacity="1" d="M 101.5 99 L 100.5 101 L 101.5 99 Z " /><path fill="rgb(250,250,250)" stroke="rgb(250,250,250)" stroke-width="1" opacity="1" d="M 80.5 101 Q 83.5 102.5 80.5 104 L 78 102.5 L 80.5 101 Z " /><path fill="rgb(250,250,250)" stroke="rgb(250,250,250)" stroke-width="1" opacity="1" d="M 64.5 102 L 65.5 104 Q 63.3 103.3 64 105.5 L 63 105.5 L 64.5 102 Z " /><path fill="rgb(250,250,250)" stroke="rgb(250,250,250)" stroke-width="1" opacity="1" d="M 72.5 104 Q 75.5 105.5 72.5 107 L 72.5 104 Z " /><path fill="rgb(250,250,250)" stroke="rgb(250,250,250)" stroke-width="1" opacity="1" d="M 107.5 104 L 110 105.5 L 108.5 106 L 107.5 104 Z " /><path fill="rgb(250,250,250)" stroke="rgb(250,250,250)" stroke-width="1" opacity="1" d="M 115.5 104 L 114.5 106 L 115.5 104 Z " /><path fill="rgb(250,250,250)" stroke="rgb(250,250,250)" stroke-width="1" opacity="1" d="M 118.5 104 L 119.5 106 Q 117.8 103.2 116 107.5 L 116.5 109 L 115 107.5 L 118.5 104 Z " /><path fill="rgb(250,250,250)" stroke="rgb(250,250,250)" stroke-width="1" opacity="1" d="M 121.5 104 Q 123.8 103.3 123 105.5 L 121.5 104 Z " /><path fill="rgb(250,250,250)" stroke="rgb(250,250,250)" stroke-width="1" opacity="1" d="M 130.5 104 L 131.5 106 L 130.5 104 Z " /><path fill="rgb(250,250,250)" stroke="rgb(250,250,250)" stroke-width="1" opacity="1" d="M 79.5 105 L 78.5 109 L 76.5 108 L 74 109.5 L 79.5 105 Z " /><path fill="rgb(250,250,250)" stroke="rgb(250,250,250)" stroke-width="1" opacity="1" d="M 58 106 L 60 106.5 L 58.5 109 L 58 106 Z " /><path fill="rgb(250,250,250)" stroke="rgb(250,250,250)" stroke-width="1" opacity="1" d="M 69.5 107 L 71 107.5 L 68.5 109 L 69.5 107 Z " /><path fill="rgb(250,250,250)" stroke="rgb(250,250,250)" stroke-width="1" opacity="1" d="M 108.5 108 Q 111.8 106.9 111 109.5 L 109 110.5 L 109.5 109 L 108.5 108 Z " /><path fill="rgb(250,250,250)" stroke="rgb(250,250,250)" stroke-width="1" opacity="1" d="M 134.5 109 Q 136.8 108.3 136 110.5 L 134.5 109 Z " /><path fill="rgb(250,250,250)" stroke="rgb(250,250,250)" stroke-width="1" opacity="1" d="M 57.5 111 L 59 111.5 L 56.5 113 L 57.5 111 Z " /><path fill="rgb(250,250,250)" stroke="rgb(250,250,250)" stroke-width="1" opacity="1" d="M 51.5 112 L 50.5 114 L 51.5 112 Z " /><path fill="rgb(250,250,250)" stroke="rgb(250,250,250)" stroke-width="1" opacity="1" d="M 65.5 112 L 65 113.5 L 64.5 115 L 64 113.5 L 65.5 112 Z " /><path fill="rgb(250,250,250)" stroke="rgb(250,250,250)" stroke-width="1" opacity="1" d="M 69.5 112 L 71 112.5 L 67.5 114 L 67.5 113 L 69.5 112 Z " /><path fill="rgb(250,250,250)" stroke="rgb(250,250,250)" stroke-width="1" opacity="1" d="M 120.5 112 L 122 112.5 L 119 114.5 L 120.5 112 Z " /><path fill="rgb(250,250,250)" stroke="rgb(250,250,250)" stroke-width="1" opacity="1" d="M 143.5 112 L 145 112.5 L 142.5 114 L 143.5 112 Z " /><path fill="rgb(250,250,250)" stroke="rgb(250,250,250)" stroke-width="1" opacity="1" d="M 147.5 112 L 146.5 114 L 147.5 112 Z " /><path fill="rgb(250,250,250)" stroke="rgb(250,250,250)" stroke-width="1" opacity="1" d="M 49.5 115 L 50.5 117 L 48.5 118 L 49 116.5 L 49.5 115 Z " /><path fill="rgb(250,250,250)" stroke="rgb(250,250,250)" stroke-width="1" opacity="1" d="M 130.5 115 L 133 115.5 L 132.5 118 L 130.5 115 Z " /><path fill="rgb(250,250,250)" stroke="rgb(250,250,250)" stroke-width="1" opacity="1" d="M 66.5 116 L 66 117.5 L 62.5 123 L 62 121.5 L 66.5 116 Z " /><path fill="rgb(250,250,250)" stroke="rgb(250,250,250)" stroke-width="1" opacity="1" d="M 116.5 116 L 117.5 118 L 116.5 116 Z " /><path fill="rgb(250,250,250)" stroke="rgb(250,250,250)" stroke-width="1" opacity="1" d="M 150 116 L 152 116.5 L 150 119.5 L 152 119.5 L 151.5 122 L 149 118.5 L 150 116 Z " /><path fill="rgb(250,250,250)" stroke="rgb(250,250,250)" stroke-width="1" opacity="1" d="M 68.5 117 L 67.5 119 L 68.5 117 Z " /><path fill="rgb(250,250,250)" stroke="rgb(250,250,250)" stroke-width="1" opacity="1" d="M 128.5 117 L 129 118.5 L 126.5 120 L 128.5 117 Z " /><path fill="rgb(250,250,250)" stroke="rgb(250,250,250)" stroke-width="1" opacity="1" d="M 40.5 120 L 44 121.5 L 43.5 123 L 42.5 121 L 40 122 L 40.5 120 Z " /><path fill="rgb(250,250,250)" stroke="rgb(250,250,250)" stroke-width="1" opacity="1" d="M 56.5 120 Q 59.3 121.3 57 122.5 Q 56.3 124.8 58.5 124 L 61 124.5 Q 59.8 127.3 58.5 125 L 55.5 126 L 55.5 125 L 57 124.5 L 55.5 122 L 57 121.5 L 56.5 120 Z " /><path fill="rgb(250,250,250)" stroke="rgb(250,250,250)" stroke-width="1" opacity="1" d="M 153.5 124 L 156 124.5 L 153.5 125 L 153.5 124 Z " /><path fill="rgb(250,250,250)" stroke="rgb(250,250,250)" stroke-width="1" opacity="1" d="M 158.5 126 L 160.5 131 L 161 129 Q 164 128 163 131 L 161 131.5 L 161.5 133 Q 156.7 131 158.5 126 Z " /><path fill="rgb(250,250,250)" stroke="rgb(250,250,250)" stroke-width="1" opacity="1" d="M 52.5 127 L 51.5 129 L 49 128.5 L 52.5 127 Z " /><path fill="rgb(250,250,250)" stroke="rgb(250,250,250)" stroke-width="1" opacity="1" d="M 35.5 128 L 37.5 129 L 39 128.5 L 40 130.5 L 38 131.5 Q 38.8 129.3 36.5 130 L 35.5 128 Z " /><path fill="rgb(250,250,250)" stroke="rgb(250,250,250)" stroke-width="1" opacity="1" d="M 165.5 128 L 166.5 130 L 165.5 128 Z " /><path fill="rgb(250,250,250)" stroke="rgb(250,250,250)" stroke-width="1" opacity="1" d="M 33.5 130 L 36 131.5 L 34.5 132 L 32 131.5 L 33.5 130 Z " /><path fill="rgb(250,250,250)" stroke="rgb(250,250,250)" stroke-width="1" opacity="1" d="M 33.5 133 L 34 135 L 32 134.5 L 33.5 133 Z " /><path fill="rgb(250,250,250)" stroke="rgb(250,250,250)" stroke-width="1" opacity="1" d="M 36.5 133 L 37.5 135 L 35 134.5 L 36.5 133 Z " /><path fill="rgb(250,250,250)" stroke="rgb(250,250,250)" stroke-width="1" opacity="1" d="M 46.5 134 L 47.5 136 L 46.5 134 Z " /><path fill="rgb(250,250,250)" stroke="rgb(250,250,250)" stroke-width="1" opacity="1" d="M 44.5 135 L 45.5 137 Q 42.7 137.7 44.5 135 Z " /><path fill="rgb(250,250,250)" stroke="rgb(250,250,250)" stroke-width="1" opacity="1" d="M 166.5 135 L 170 137.5 L 168.5 138 Q 166.8 134.9 165 136.5 L 166.5 135 Z " /><path fill="rgb(250,250,250)" stroke="rgb(250,250,250)" stroke-width="1" opacity="1" d="M 30.5 138 L 33 138.5 L 28.5 142 L 30 139.5 L 30.5 138 Z " /><path fill="rgb(250,250,250)" stroke="rgb(250,250,250)" stroke-width="1" opacity="1" d="M 172.5 138 Q 175.8 138.8 175 143.5 L 172 145.5 L 174 141.5 Q 171 140.5 172.5 138 Z " /><path fill="rgb(250,250,250)" stroke="rgb(250,250,250)" stroke-width="1" opacity="1" d="M 43.5 139 L 42.5 141 L 43.5 139 Z " /><path fill="rgb(250,250,250)" stroke="rgb(250,250,250)" stroke-width="1" opacity="1" d="M 24.5 140 L 27 141.5 L 25.5 142 L 24.5 140 Z " /><path fill="rgb(250,250,250)" stroke="rgb(250,250,250)" stroke-width="1" opacity="1" d="M 170.5 140 L 171.5 142 Q 168.7 142.7 170.5 140 Z " /><path fill="rgb(250,250,250)" stroke="rgb(250,250,250)" stroke-width="1" opacity="1" d="M 38.5 141 Q 40.8 140.3 40 142.5 L 38.5 141 Z " /><path fill="rgb(250,250,250)" stroke="rgb(250,250,250)" stroke-width="1" opacity="1" d="M 24.5 143 L 27 144.5 L 24 145 L 24.5 143 Z " /><path fill="rgb(250,250,250)" stroke="rgb(250,250,250)" stroke-width="1" opacity="1" d="M 35.5 144 L 36 145.5 L 34 146.5 L 35.5 144 Z " /><path fill="rgb(250,250,250)" stroke="rgb(250,250,250)" stroke-width="1" opacity="1" d="M 181.5 149 Q 184.5 150.5 181.5 152 L 181.5 149 Z " /><path fill="rgb(250,250,250)" stroke="rgb(250,250,250)" stroke-width="1" opacity="1" d="M 18.5 152 Q 21.5 153.5 18.5 155 L 18.5 152 Z " /><path fill="rgb(250,250,250)" stroke="rgb(250,250,250)" stroke-width="1" opacity="1" d="M 172.5 153 L 171.5 155 L 172.5 153 Z " /><path fill="rgb(250,250,250)" stroke="rgb(250,250,250)" stroke-width="1" opacity="1" d="M 181.5 160 L 182 167.5 L 181 167.5 L 181.5 160 Z " /><path fill="rgb(250,250,250)" stroke="rgb(250,250,250)" stroke-width="1" opacity="1" d="M 174.5 167 Q 177.3 168.3 175 169.5 L 174.5 171 L 173.5 169 L 175 168.5 L 174.5 167 Z " /><path fill="rgb(250,250,250)" stroke="rgb(250,250,250)" stroke-width="1" opacity="1" d="M 17.5 168 L 19 168.5 L 16.5 170 L 17.5 168 Z " /><path fill="rgb(250,250,250)" stroke="rgb(250,250,250)" stroke-width="1" opacity="1" d="M 18.5 170 L 19 172 L 17 171.5 L 18.5 170 Z " /><path fill="rgb(250,250,250)" stroke="rgb(250,250,250)" stroke-width="1" opacity="1" d="M 32.5 172 L 169 172.5 L 32.5 173 L 32.5 172 Z " /><path fill="rgb(250,250,250)" stroke="rgb(250,250,250)" stroke-width="1" opacity="1" d="M 171.5 172 L 172 174 L 170 173.5 L 171.5 172 Z " /><path fill="rgb(250,250,250)" stroke="rgb(250,250,250)" stroke-width="1" opacity="1" d="M 19.5 173 L 21 173.5 Q 18.2 175.3 22.5 177 L 29 179.5 L 24 181 Q 25.5 177.3 22.5 178 Q 20.3 173.7 18 175.5 L 19.5 173 Z " /><path fill="rgb(250,250,250)" stroke="rgb(250,250,250)" stroke-width="1" opacity="1" d="M 179.5 175 L 179 176.5 Q 179.8 178.8 177.5 178 L 179.5 175 Z " /><path fill="rgb(250,250,250)" stroke="rgb(250,250,250)" stroke-width="1" opacity="1" d="M 173.5 178 Q 177.7 176.9 176 181 L 171 179.5 L 173.5 178 Z " /><path fill="rgb(23,23,22)" stroke="rgb(23,23,22)" stroke-width="1" opacity="1" d="M 27.5 22 L 172.5 22 L 178 25.5 L 179 27.5 L 179 172.5 L 175.5 177 L 172.5 178 L 27.5 178 L 22 174.5 L 21 172.5 L 21 27.5 L 24.5 23 L 27.5 22 Z M 28 25 L 24 28 L 25 152 L 48 124 L 71 101 L 79 96 L 85 97 L 94 104 L 107 119 Q 106 121 109 120 L 111 117 L 121 107 L 126 105 L 130 106 L 138 113 L 176 151 L 176 29 L 175 26 L 173 25 L 28 25 Z M 79 99 L 73 103 Q 46 128 24 158 L 24 172 L 25 174 L 28 175 L 173 175 L 175 174 L 176 172 L 176 156 L 127 108 L 122 110 L 111 123 L 127 145 L 131 153 L 131 156 L 128 158 L 123 158 L 115 154 Q 105 149 102 137 Q 101 128 106 125 L 106 123 L 100 116 L 87 102 Q 85 98 79 99 Z M 109 126 L 106 131 L 106 139 L 109 145 Q 115 152 126 155 L 128 154 Q 120 138 109 126 Z " /><path fill="rgb(23,23,22)" stroke="rgb(23,23,22)" stroke-width="1" opacity="1" d="M 97.5 54 Q 100.1 53.2 99 56.5 L 95 62.5 L 97.5 61 Q 101 57.5 108.5 58 Q 117 59.5 121 65.5 L 122 71.5 L 116.5 80 L 109.5 84 L 101.5 86 L 93.5 86 L 88 82.5 L 87 74.5 L 94 57.5 L 97.5 54 Z M 105 61 L 97 66 Q 98 68 94 67 L 94 65 L 90 74 Q 89 80 91 82 L 94 83 L 102 83 L 113 79 L 119 72 L 118 67 Q 114 61 105 61 Z " /><path fill="rgb(209,209,207)" stroke="rgb(209,209,207)" stroke-width="1" opacity="1" d="M 28.5 25 L 172 25.5 L 28.5 26 L 28.5 25 Z " /><path fill="rgb(209,209,207)" stroke="rgb(209,209,207)" stroke-width="1" opacity="1" d="M 93.5 67 L 92.5 69 L 93.5 67 Z " /><path fill="rgb(209,209,207)" stroke="rgb(209,209,207)" stroke-width="1" opacity="1" d="M 97.5 82 L 100 82.5 L 97.5 83 L 97.5 82 Z " /><path fill="rgb(209,209,207)" stroke="rgb(209,209,207)" stroke-width="1" opacity="1" d="M 97.5 86 L 101 86.5 L 97.5 87 L 97.5 86 Z " /><path fill="rgb(209,209,207)" stroke="rgb(209,209,207)" stroke-width="1" opacity="1" d="M 79.5 95 L 82 95.5 L 79.5 96 L 79.5 95 Z " /><path fill="rgb(209,209,207)" stroke="rgb(209,209,207)" stroke-width="1" opacity="1" d="M 96.5 100 L 98.5 103 L 96.5 100 Z " /><path fill="rgb(209,209,207)" stroke="rgb(209,209,207)" stroke-width="1" opacity="1" d="M 85.5 103 L 83.5 106 L 85.5 103 Z " /><path fill="rgb(209,209,207)" stroke="rgb(209,209,207)" stroke-width="1" opacity="1" d="M 101.5 104 L 106.5 110 L 101.5 104 Z " /><path fill="rgb(209,209,207)" stroke="rgb(209,209,207)" stroke-width="1" opacity="1" d="M 69.5 106 L 68.5 108 L 69.5 106 Z " /><path fill="rgb(209,209,207)" stroke="rgb(209,209,207)" stroke-width="1" opacity="1" d="M 131.5 107 L 132.5 109 L 131.5 107 Z " /><path fill="rgb(209,209,207)" stroke="rgb(209,209,207)" stroke-width="1" opacity="1" d="M 79.5 108 L 73.5 115 L 72 114.5 L 79.5 108 Z " /><path fill="rgb(209,209,207)" stroke="rgb(209,209,207)" stroke-width="1" opacity="1" d="M 117.5 109 L 113.5 114 L 117.5 109 Z " /><path fill="rgb(209,209,207)" stroke="rgb(209,209,207)" stroke-width="1" opacity="1" d="M 109.5 111 L 111.5 114 L 109.5 111 Z " /><path fill="rgb(209,209,207)" stroke="rgb(209,209,207)" stroke-width="1" opacity="1" d="M 131.5 112 L 133.5 115 L 131.5 112 Z " /><path fill="rgb(209,209,207)" stroke="rgb(209,209,207)" stroke-width="1" opacity="1" d="M 70.5 116 L 67.5 120 L 70.5 116 Z " /><path fill="rgb(209,209,207)" stroke="rgb(209,209,207)" stroke-width="1" opacity="1" d="M 146.5 116 L 150 120.5 L 148 119.5 L 146.5 116 Z " /><path fill="rgb(209,209,207)" stroke="rgb(209,209,207)" stroke-width="1" opacity="1" d="M 58.5 117 L 55.5 121 L 58.5 117 Z " /><path fill="rgb(209,209,207)" stroke="rgb(209,209,207)" stroke-width="1" opacity="1" d="M 50.5 120 L 48.5 123 L 50.5 120 Z " /><path fill="rgb(209,209,207)" stroke="rgb(209,209,207)" stroke-width="1" opacity="1" d="M 65.5 120 L 66 122 L 64 121.5 L 65.5 120 Z " /><path fill="rgb(209,209,207)" stroke="rgb(209,209,207)" stroke-width="1" opacity="1" d="M 150.5 122 L 151.5 124 L 150.5 122 Z " /><path fill="rgb(209,209,207)" stroke="rgb(209,209,207)" stroke-width="1" opacity="1" d="M 62.5 123 L 57.5 129 L 62.5 123 Z " /><path fill="rgb(209,209,207)" stroke="rgb(209,209,207)" stroke-width="1" opacity="1" d="M 42.5 129 L 41.5 131 L 42.5 129 Z " /><path fill="rgb(209,209,207)" stroke="rgb(209,209,207)" stroke-width="1" opacity="1" d="M 54.5 130 L 50.5 135 L 54.5 130 Z " /><path fill="rgb(209,209,207)" stroke="rgb(209,209,207)" stroke-width="1" opacity="1" d="M 37.5 135 L 35.5 138 L 37.5 135 Z " /><path fill="rgb(209,209,207)" stroke="rgb(209,209,207)" stroke-width="1" opacity="1" d="M 45.5 138 L 42.5 142 L 45.5 138 Z " /><path fill="rgb(209,209,207)" stroke="rgb(209,209,207)" stroke-width="1" opacity="1" d="M 31.5 142 L 30.5 144 L 31.5 142 Z " /><path fill="rgb(209,209,207)" stroke="rgb(209,209,207)" stroke-width="1" opacity="1" d="M 163.5 143 L 169.5 150 Q 167.8 146.9 166 148.5 Q 168.3 147.3 165.5 146 Q 163.3 146.8 164 144.5 L 163.5 143 Z " /><path fill="rgb(209,209,207)" stroke="rgb(209,209,207)" stroke-width="1" opacity="1" d="M 36.5 146 L 35.5 148 L 36.5 146 Z " /><path fill="rgb(209,209,207)" stroke="rgb(209,209,207)" stroke-width="1" opacity="1" d="M 27.5 147 L 26.5 149 L 27.5 147 Z " /><path fill="rgb(209,209,207)" stroke="rgb(209,209,207)" stroke-width="1" opacity="1" d="M 167.5 150 L 168.5 152 L 167.5 150 Z " /><path fill="rgb(209,209,207)" stroke="rgb(209,209,207)" stroke-width="1" opacity="1" d="M 27 153 L 29 153.5 L 25 156.5 L 27 153 Z " /><path fill="rgb(209,209,207)" stroke="rgb(209,209,207)" stroke-width="1" opacity="1" d="M 174.5 162 L 175 165.5 L 174 165.5 L 174.5 162 Z " /><path fill="rgb(209,209,207)" stroke="rgb(209,209,207)" stroke-width="1" opacity="1" d="M 173.5 168 L 171.5 171 L 173.5 168 Z " /><path fill="rgb(209,209,207)" stroke="rgb(209,209,207)" stroke-width="1" opacity="1" d="M 24.5 169 Q 27.5 170.5 24.5 172 L 24.5 169 Z " /><path fill="rgb(209,209,207)" stroke="rgb(209,209,207)" stroke-width="1" opacity="1" d="M 31.5 171 L 170 171.5 L 31.5 172 L 31.5 171 Z " /><path fill="rgb(209,209,207)" stroke="rgb(209,209,207)" stroke-width="1" opacity="1" d="M 28.5 174 L 31 174.5 L 28.5 175 L 28.5 174 Z " /><path fill="rgb(209,209,207)" stroke="rgb(209,209,207)" stroke-width="1" opacity="1" d="M 32.5 174 L 172 174.5 L 32.5 175 L 32.5 174 Z " /><path fill="rgb(153,153,153)" stroke="rgb(153,153,153)" stroke-width="1" opacity="1" d="M 25.5 26 L 24.5 28 L 25.5 26 Z " /><path fill="rgb(153,153,153)" stroke="rgb(153,153,153)" stroke-width="1" opacity="1" d="M 20.5 29 L 21 170.5 L 20 170.5 L 20.5 29 Z " /><path fill="rgb(153,153,153)" stroke="rgb(153,153,153)" stroke-width="1" opacity="1" d="M 179.5 29 L 180 170.5 L 179 170.5 L 179.5 29 Z " /><path fill="rgb(153,153,153)" stroke="rgb(153,153,153)" stroke-width="1" opacity="1" d="M 97.5 53 L 99 53.5 L 95.5 56 L 97.5 53 Z " /><path fill="rgb(153,153,153)" stroke="rgb(153,153,153)" stroke-width="1" opacity="1" d="M 98.5 57 L 97.5 59 L 98.5 57 Z " /><path fill="rgb(153,153,153)" stroke="rgb(153,153,153)" stroke-width="1" opacity="1" d="M 104.5 61 L 108 61.5 L 104.5 62 L 104.5 61 Z " /><path fill="rgb(153,153,153)" stroke="rgb(153,153,153)" stroke-width="1" opacity="1" d="M 117.5 61 L 119.5 64 L 117.5 61 Z " /><path fill="rgb(153,153,153)" stroke="rgb(153,153,153)" stroke-width="1" opacity="1" d="M 94.5 63 L 95 64.5 L 94 67 L 97 67.5 L 94.5 68 L 92 67.5 L 94.5 63 Z " /><path fill="rgb(153,153,153)" stroke="rgb(153,153,153)" stroke-width="1" opacity="1" d="M 99.5 63 L 97.5 66 L 99.5 63 Z " /><path fill="rgb(153,153,153)" stroke="rgb(153,153,153)" stroke-width="1" opacity="1" d="M 115.5 64 L 117.5 67 L 115.5 64 Z " /><path fill="rgb(153,153,153)" stroke="rgb(153,153,153)" stroke-width="1" opacity="1" d="M 118.5 68 L 119 71.5 L 118 71.5 L 118.5 68 Z " /><path fill="rgb(153,153,153)" stroke="rgb(153,153,153)" stroke-width="1" opacity="1" d="M 90.5 73 L 91 75.5 L 90 75.5 L 90.5 73 Z " /><path fill="rgb(153,153,153)" stroke="rgb(153,153,153)" stroke-width="1" opacity="1" d="M 120.5 75 L 119.5 77 L 120.5 75 Z " /><path fill="rgb(153,153,153)" stroke="rgb(153,153,153)" stroke-width="1" opacity="1" d="M 72.5 99 L 71.5 101 L 72.5 99 Z " /><path fill="rgb(153,153,153)" stroke="rgb(153,153,153)" stroke-width="1" opacity="1" d="M 89.5 100 L 95.5 100 L 113 114.5 L 108.5 120 Q 106.3 120.8 107 118.5 L 93.5 104 L 89.5 100 Z " /><path fill="rgb(153,153,153)" stroke="rgb(153,153,153)" stroke-width="1" opacity="1" d="M 86.5 102 L 100 115.5 L 106 122.5 L 106 124.5 Q 101.5 128 102 136.5 Q 104.8 148.7 114.5 154 L 122.5 158 L 127.5 158 L 131 155.5 L 131 152.5 L 127 144.5 L 111 122.5 L 121.5 110 L 116 116.5 L 118.5 120 L 126.5 121 L 136.5 117 L 163 142.5 L 174 161.5 L 174 167.5 L 170.5 171 L 31.5 171 L 29.5 172 L 24 168.5 L 24 157.5 L 25.5 157 L 26.5 154 L 27.5 155 L 32.5 150 L 35.5 148 L 64.5 122 L 66 122 Q 64.9 119.3 67.5 120 L 86 103.5 L 86.5 102 Z " /><path fill="rgb(153,153,153)" stroke="rgb(153,153,153)" stroke-width="1" opacity="1" d="M 67.5 103 L 51.5 120 L 67.5 103 Z " /><path fill="rgb(153,153,153)" stroke="rgb(153,153,153)" stroke-width="1" opacity="1" d="M 72.5 103 L 70.5 106 L 72.5 103 Z " /><path fill="rgb(153,153,153)" stroke="rgb(153,153,153)" stroke-width="1" opacity="1" d="M 128.5 109 L 130.5 112 L 128.5 109 Z " /><path fill="rgb(153,153,153)" stroke="rgb(153,153,153)" stroke-width="1" opacity="1" d="M 133.5 109 L 136.5 113 L 133.5 109 Z " /><path fill="rgb(153,153,153)" stroke="rgb(153,153,153)" stroke-width="1" opacity="1" d="M 140.5 115 Q 146.7 114.3 148 118.5 L 153 127.5 L 176 150.5 L 140.5 115 Z " /><path fill="rgb(153,153,153)" stroke="rgb(153,153,153)" stroke-width="1" opacity="1" d="M 54.5 121 L 50.5 126 L 54.5 121 Z " /><path fill="rgb(153,153,153)" stroke="rgb(153,153,153)" stroke-width="1" opacity="1" d="M 47.5 124 L 43.5 129 L 47.5 124 Z " /><path fill="rgb(153,153,153)" stroke="rgb(153,153,153)" stroke-width="1" opacity="1" d="M 108.5 126 Q 120.1 137.9 128 153.5 L 125.5 155 Q 114.6 152.4 109 144.5 L 106 138.5 L 106 130.5 L 108.5 126 Z " /><path fill="rgb(153,153,153)" stroke="rgb(153,153,153)" stroke-width="1" opacity="1" d="M 46.5 130 L 43.5 134 L 46.5 130 Z " /><path fill="rgb(153,153,153)" stroke="rgb(153,153,153)" stroke-width="1" opacity="1" d="M 40.5 132 L 38.5 135 L 40.5 132 Z " /><path fill="rgb(153,153,153)" stroke="rgb(153,153,153)" stroke-width="1" opacity="1" d="M 40.5 137 L 38.5 140 L 40.5 137 Z " /><path fill="rgb(153,153,153)" stroke="rgb(153,153,153)" stroke-width="1" opacity="1" d="M 34.5 139 L 32.5 142 L 34.5 139 Z " /><path fill="rgb(153,153,153)" stroke="rgb(153,153,153)" stroke-width="1" opacity="1" d="M 35.5 143 L 33.5 146 L 35.5 143 Z " /><path fill="rgb(153,153,153)" stroke="rgb(153,153,153)" stroke-width="1" opacity="1" d="M 29.5 145 L 28.5 147 L 29.5 145 Z " /><path fill="rgb(153,153,153)" stroke="rgb(153,153,153)" stroke-width="1" opacity="1" d="M 30.5 149 L 29.5 151 L 30.5 149 Z " /><path fill="rgb(153,153,153)" stroke="rgb(153,153,153)" stroke-width="1" opacity="1" d="M 25.5 150 L 24.5 152 L 25.5 150 Z " /><path fill="rgb(153,153,153)" stroke="rgb(153,153,153)" stroke-width="1" opacity="1" d="M 172.5 152 L 175.5 156 L 172.5 152 Z " /></svg>